<svg xmlns="http://www.w3.org/2000/svg" data-name="Layer 1" viewBox="0 0 829.13 587.68">
  <path fill="#ffb6b6" d="M85.76 572.86h13.76l6.54-53.09-20.31.01.01 53.08z"/>
  <path fill="#2f2e41" d="M85.27 587.21h42.32v-.53a16.47 16.47 0 0 0-16.47-16.47l-7.73-5.87-14.42 5.87h-3.7Z"/>
  <path fill="#ffb6b6" d="m107.98 508.63 10.83 8.49 37.89-37.75-15.99-12.52-32.73 41.78z"/>
  <path fill="#2f2e41" d="m98.75 519.64 33.31 26.1.33-.43a16.47 16.47 0 0 0-2.8-23.12h-.01l-2.47-9.39-14.97-4.27-2.9-2.28Z"/>
  <path fill="#2f2e41" d="M172.77 266.77s18.27 18.95 10.15 62.92l6.81 75.28 1.76 3.49a11.05 11.05 0 0 1-2.05 12.8l-1.45 4.49-1.35 8.79-50.4 75.76-19.28-20.29 31.12-71.03-8.46-18.26-19.61-63.6-13.53 116.36 2.7 100.12h-25.9L67.25 441.98 50.33 285.04l8.8-18.27Z"/>
  <path fill="#3f3d56" d="m54.55 299.32-.19-.26c-9.85-13.8 4.97-46.96 7.2-51.76a12.07 12.07 0 0 1-8.25-12.9l.96-8.19 1-8.03-7.2-7.2-.01-.18-4.15-36.24-6.02-24.07a52.85 52.85 0 0 1 15-51.22l13.92-2.2 16.92-16.31h27.28l9.36 8.94c17.46 3.06 20.46 2.06 35.46 20.06l-6.82 55.96-1.7 7.7v10.44l4.33 4.8a14.95 14.95 0 0 1 3.55 12.94l-.57 2.84c4.46 1.91 8.71 35.87 9.73 40.6l1.52 7.1c1.3 1.7 9.87 13.14 9.87 16.27 0 .46-.35.92-1.1 1.42-5.83 3.96-29.13 32.02-43.42 26.3-15.23-6.08-75.75 3.05-76.36 3.14Z"/>
  <path fill="#ffb6b6" d="M50.88 234.25s7-39.6-.05-54.49l-28 2 4.26 56.49 24.48 62.71a11.15 11.15 0 1 0 18.08-6.46Z"/>
  <path fill="#3f3d56" d="m22.83 158.76 1.73-18.87a54.1 54.1 0 0 1 19.4-36.75 23.69 23.69 0 0 1 24.8-3.28 23.63 23.63 0 0 1 12.2 29.87c-6.47 16.97-4.14 34.92-16.76 37.11l1.37 6.52-12.4 40.5-35.34-4.1Z"/>
  <path fill="#ffb6b6" d="M209.2 215.48s-20.5-34.59-35.56-41.27l-19.93 19.77 40.07 40.05 59.46 31.58a11.15 11.15 0 1 0 9.49-16.69Z"/>
  <path fill="#3f3d56" d="m138.71 176.55-10.99-15.44a54.1 54.1 0 0 1-9.26-40.52 23.69 23.69 0 0 1 16.66-18.64 23.63 23.63 0 0 1 28.73 14.68c6.16 17.09 28.64 45.17 20.5 55.06l5.3 4.05 8 22.79-29.47 19.94Z"/>
  <circle cx="95.53" cy="42.59" r="30.3" fill="#ffb6b6"/>
  <path fill="#2f2e41" d="m73.54 63.94-.77-.72-.02.08Zm46.82-53.34a17.18 17.18 0 0 0-6.07-5.86 25.38 25.38 0 0 0-5.3-1.88l-4.8-1.3A38.01 38.01 0 0 0 96.65.03a19.42 19.42 0 0 0-17.74 9.62c-1.45 2.57-2.6 5.77-5.4 6.7-2.26.77-4.72-.3-7.09-.1a8.53 8.53 0 0 0-6.47 4.78 18.38 18.38 0 0 0-1.7 8.14 45.62 45.62 0 0 0 14.52 34.04c.78-2.06-.5-4.28-1.52-6.25-1.03-2-1.67-4.78.05-6.22 1.92-1.6 5-.05 7.27-1.09a5.07 5.07 0 0 0 2.54-4.08c.22-1.65-.01-3.34.1-5a12.54 12.54 0 0 1 13.4-11.73c5.17.36 10.19 3.9 15.16 2.44 2.34-.68 4.33-2.41 6.74-2.7 2.68-.33 5.2 1.18 7.46 2.63a26.6 26.6 0 0 0-3.61-20.63Z"/>
  <path fill="#f0f0f0" d="m225.4 570.2-7.71-12.4-1.54 7.08-.8 3.75a111.4 111.4 0 0 0-6.79-5.26l-21-15.26 2.2 12.7c1.35 7.82 2.76 15.8 6.1 22.95.37.81.77 1.61 1.2 2.4h32.54a10.49 10.49 0 0 0 .54-2.25.77.77 0 0 0 0-.15c.52-4.85-2.16-9.42-4.74-13.57Zm564.08-13.39-13.98-22.47-2.8 12.84a409.9 409.9 0 0 0-1.43 6.8c-3.97-3.4-8.2-6.53-12.33-9.54q-19.05-13.82-38.08-27.68l3.98 23.04c2.44 14.18 5 28.66 11.06 41.62.67 1.47 1.4 2.93 2.18 4.34h59.02a19.02 19.02 0 0 0 .98-4.06 1.4 1.4 0 0 0 .02-.28c.92-8.8-3.94-17.08-8.62-24.61Z"/>
  <path fill="#cacaca" d="m827.94 587.37-826.75.3a1.2 1.2 0 0 1 0-2.38l826.75-.3a1.2 1.2 0 0 1 0 2.38Z"/>
  <path fill="#3f3d56" d="M259.4 238.3v287.02a13.8 13.8 0 0 0 13.8 13.8h425.33a13.8 13.8 0 0 0 13.8-13.8V238.3a13.81 13.81 0 0 0-13.8-13.78H273.2a13.81 13.81 0 0 0-13.8 13.78Z"/>
  <path fill="#fff" d="M269.38 241.87v279.91a7.39 7.39 0 0 0 7.37 7.37h418.24a7.39 7.39 0 0 0 7.37-7.37V241.87a7.39 7.39 0 0 0-7.37-7.39H276.75a7.39 7.39 0 0 0-7.37 7.39Z"/>
  <path fill="#2f2e41" d="M250.5 581.3a8.27 8.27 0 0 0 6.51 3.11h455.44a8.38 8.38 0 0 0 8.2-10.1l-7.08-33.58a8.4 8.4 0 0 0-5.22-6.09 8.12 8.12 0 0 0-2.97-.56H264.05a8.12 8.12 0 0 0-2.97.56 8.4 8.4 0 0 0-5.22 6.1l-7.07 33.57a8.37 8.37 0 0 0 1.71 6.99Z"/>
  <rect width="14.03" height="8.42" x="873.55" y="696.29" fill="#3f3d56" rx=".49" transform="rotate(-180 787.85 622.42)"/>
  <rect width="14.03" height="8.42" x="845.5" y="696.29" fill="#3f3d56" rx=".49" transform="rotate(-180 759.8 622.42)"/>
  <rect width="14.03" height="8.42" x="817.44" y="696.29" fill="#3f3d56" rx=".49" transform="rotate(-180 731.74 622.42)"/>
  <rect width="14.03" height="8.42" x="789.39" y="696.29" fill="#3f3d56" rx=".49" transform="rotate(-180 703.69 622.42)"/>
  <rect width="14.03" height="8.42" x="761.33" y="696.29" fill="#3f3d56" rx=".49" transform="rotate(-180 675.63 622.42)"/>
  <rect width="14.03" height="8.42" x="733.28" y="696.29" fill="#3f3d56" rx=".49" transform="rotate(-180 647.58 622.42)"/>
  <rect width="14.03" height="8.42" x="705.22" y="696.29" fill="#3f3d56" rx=".49" transform="rotate(-180 619.52 622.42)"/>
  <rect width="14.03" height="8.42" x="677.17" y="696.29" fill="#3f3d56" rx=".49" transform="rotate(-180 591.47 622.42)"/>
  <rect width="14.03" height="8.42" x="649.12" y="696.29" fill="#3f3d56" rx=".49" transform="rotate(-180 563.41 622.42)"/>
  <rect width="14.03" height="8.42" x="621.06" y="696.29" fill="#3f3d56" rx=".49" transform="rotate(-180 535.36 622.42)"/>
  <rect width="14.03" height="8.42" x="593.01" y="696.29" fill="#3f3d56" rx=".49" transform="rotate(-180 507.3 622.42)"/>
  <rect width="14.03" height="8.42" x="564.95" y="696.29" fill="#3f3d56" rx=".49" transform="rotate(-180 479.25 622.42)"/>
  <rect width="14.03" height="8.42" x="536.9" y="696.29" fill="#3f3d56" rx=".49" transform="rotate(-180 451.2 622.42)"/>
  <rect width="14.03" height="8.42" x="508.84" y="696.29" fill="#3f3d56" rx=".49" transform="rotate(-180 423.14 622.42)"/>
  <rect width="14.03" height="8.42" x="480.79" y="696.29" fill="#3f3d56" rx=".49" transform="rotate(-180 395.08 622.42)"/>
  <rect width="14.03" height="8.42" x="452.73" y="696.29" fill="#3f3d56" rx=".49" transform="rotate(-180 367.03 622.42)"/>
  <rect width="14.03" height="8.42" x="873.88" y="710.32" fill="#3f3d56" rx=".49" transform="rotate(-180 788.18 636.45)"/>
  <rect width="14.03" height="8.42" x="845.83" y="710.32" fill="#3f3d56" rx=".49" transform="rotate(-180 760.13 636.45)"/>
  <rect width="14.03" height="8.42" x="817.77" y="710.32" fill="#3f3d56" rx=".49" transform="rotate(-180 732.07 636.45)"/>
  <rect width="14.03" height="8.42" x="789.72" y="710.32" fill="#3f3d56" rx=".49" transform="rotate(-180 704.02 636.45)"/>
  <rect width="14.03" height="8.42" x="761.67" y="710.32" fill="#3f3d56" rx=".49" transform="rotate(-180 675.96 636.45)"/>
  <rect width="14.03" height="8.42" x="733.61" y="710.32" fill="#3f3d56" rx=".49" transform="rotate(-180 647.9 636.45)"/>
  <rect width="14.03" height="8.42" x="705.56" y="710.32" fill="#3f3d56" rx=".49" transform="rotate(-180 619.85 636.45)"/>
  <rect width="14.03" height="8.42" x="677.5" y="710.32" fill="#3f3d56" rx=".49" transform="rotate(-180 591.8 636.45)"/>
  <rect width="14.03" height="8.42" x="649.45" y="710.32" fill="#3f3d56" rx=".49" transform="rotate(-180 563.74 636.45)"/>
  <rect width="14.03" height="8.42" x="621.39" y="710.32" fill="#3f3d56" rx=".49" transform="rotate(-180 535.69 636.45)"/>
  <rect width="14.03" height="8.42" x="593.34" y="710.32" fill="#3f3d56" rx=".49" transform="rotate(-180 507.63 636.45)"/>
  <rect width="14.03" height="8.42" x="565.28" y="710.32" fill="#3f3d56" rx=".49" transform="rotate(-180 479.58 636.45)"/>
  <rect width="14.03" height="8.42" x="537.23" y="710.32" fill="#3f3d56" rx=".49" transform="rotate(-180 451.52 636.45)"/>
  <rect width="14.03" height="8.42" x="509.17" y="710.32" fill="#3f3d56" rx=".49" transform="rotate(-180 423.47 636.45)"/>
  <rect width="14.03" height="8.42" x="481.12" y="710.32" fill="#3f3d56" rx=".49" transform="rotate(-180 395.42 636.45)"/>
  <rect width="14.03" height="8.42" x="453.06" y="710.32" fill="#3f3d56" rx=".49" transform="rotate(-180 367.36 636.45)"/>
  <rect width="112.22" height="8.42" x="610.03" y="727.15" fill="#3f3d56" rx=".49" transform="rotate(-180 573.42 653.28)"/>
  <path fill="#3f3d56" d="M581.15 404.04a94.64 94.64 0 1 1-6-33.33c.21.56.42 1.11.61 1.68q1.31 3.7 2.31 7.54a95.29 95.29 0 0 1 3.08 24.11Z"/>
  <path fill="#e4cda7" d="M475.45 339.76a31.97 31.97 0 0 0-28.07-1.15c-3.92 1.7-8.06 4.77-9.36 10.3 5.29-3.12 12.14 1.81 13.5 9.73l-.31.09c-.72 5.49.88 11.46 4 14.86a10.45 10.45 0 0 1 5.01-7.44c2.29-1.5 4.81-2.6 6.56-5.18 2.06-3.06 2.59-7.53 3.41-11.61s2.38-8.47 5.26-9.6Z"/>
  <path fill="#e4cda7" d="M445.81 386.43c-1.47 2.2-3.42 3.59-5.18 5.3a11.93 11.93 0 0 0-3.77 7.05c-.22 1.92.12 3.87.07 5.8-.04 1.94-.69 4.12-2 4.6-2.09.76-3.68-3.1-5.81-3.38-1.7-.2-3.23 2.46-2.74 4.78s2.8 3.35 4.13 1.83c1.2 2.02.36 5.68-1.45 6.3l-.56 3.8c-4.57-3.19-9.18-6.43-13.06-11.1a33.73 33.73 0 0 1-7.68-18.17c-.5-5.38.24-11.52-2.23-15.66-1.97-3.3-5.36-4.03-8.4-3.83-.56.04-1.12.1-1.68.17a94.24 94.24 0 0 1 6.82-15.61 6.68 6.68 0 0 0 1.71-1.07c2.84-2.4 4.1-7.28 6.4-10.65q.22-.33.46-.64c2.36-3.07 5.51-4.66 8.56-6.13 6.75-3.28 13.7-6.6 20.82-6.14l-2.03.2-7.1 19.88-1.1 3.05c-1.34 3.77-2.72 7.78-2.52 12 .13 2.5 1 5.17 2.65 6.03 1.54.8 3.22-.18 4.7-1.15l1.9-1.2c2.25-1.46 4.76-2.96 7.14-1.98 2.19.89 3.8 3.86 4.11 7.06a14.12 14.12 0 0 1-2.16 8.86Zm13.44 45.25-19.8-12.2.11-.28c-4.1 1.56-5.8 8.86-5.13 14.82s2.98 11.3 4.14 17.12a45.42 45.42 0 0 1-1.71 23.83 195.2 195.2 0 0 0 22.93-31.6 16.9 16.9 0 0 0 2.07-4.6 7.32 7.32 0 0 0-.48-5.2 5.8 5.8 0 0 0-2.13-1.89Z"/>
  <path fill="#e4cda7" d="M433.2 357.73a7.3 7.3 0 0 0-.33 5.31 5.88 5.88 0 0 0 3.28 3.05l3.65 1.8c1.21.6 2.52 1.22 3.76.72 1.5-.6 2.53-2.94 2.26-5.1-.29-2.32-1.74-3.9-3.1-5.26l-5.65-5.68-1.06 1.3a14.19 14.19 0 0 0-2.81 3.86Zm128.4 24.71 4.92 1.16c-.29 5.54-3.03 10.67-6.72 12.53-1.53.77-3.24 1.06-4.51 2.5-1.15 1.31-1.73 3.36-2.27 5.3l-2.8 10.24c-1.01 3.67-2.3 7.75-4.92 9.07-2.25 1.14-4.81-.25-6.54-2.58-1.72-2.34-2.78-5.48-3.8-8.54.06 3.34-1.49 6.6-3.68 7.77-2.2 1.16-4.88.1-6.36-2.48-1.05-1.86-1.5-4.3-2.53-6.2-1.04-1.88-3.21-2.96-4.35-1.19-.74 1.18-.65 2.98-1.02 4.47a4.85 4.85 0 0 1-4.05 3.9 6.76 6.76 0 0 1-4.86-2.22 21.99 21.99 0 0 1-6.03-12.16 14.5 14.5 0 0 1 .17-6.64c.65-2.06 2.23-3.65 3.79-3.26 1.02-2.17-1-5.05-2.83-4.8-1.83.26-3.26 2.22-4.77 3.73-1.5 1.5-3.6 2.6-5.1 1.1a2.07 2.07 0 0 1-2.1 2.2 7.5 7.5 0 0 1-2.74-1.45c-3.46-2.15-7.84-.72-10.3 3.35 1.54-6.53 3.79-14.02 8.5-15.56 1.93-.63 4.03-.11 5.85-1.2 3.22-1.93 3.88-9.23 1.1-12.24.35 2.84.28 6.17-1.23 8.12-1.5 1.94-4.65.67-4.46-2.2a1.93 1.93 0 0 1-3.6.76c-1-1.53-.9-4.02-.2-5.84a13.75 13.75 0 0 1 3.09-4.38c2.51-2.7 5.06-5.43 7.97-7.12 2.92-1.7 6.29-2.26 9.2-.58 1.55.89 2.9 2.37 4.48 3.15a3.31 3.31 0 0 0 4.6-1.15c1.18-2.05.63-5.1 1.06-7.67.78-4.54 5.31-6.66 7.83-3.66-1.88-.49-3.82 1.74-4.06 4.43-.23 2.7 1.13 5.42 2.95 6.23 3.06 1.36 6.05-2.05 8.37-5.2l7.25-9.91a11.97 11.97 0 0 1 1.3-1.58 4.17 4.17 0 0 1 5.7-.11c2.44 2 3.59 6.08 5.6 8.9 2.9 4.1 7.26 5.09 11.32 5.88l9.07 1.77a94 94 0 0 1 5.27 11.63 31.88 31.88 0 0 0-13.56 11.73Zm16.47-2.51a19.08 19.08 0 0 0-1 5.67c-2.6-3.17-3.01-9.1-1.3-13.2q1.3 3.7 2.3 7.53Zm-6.7 66.2a94.9 94.9 0 0 1-7.89 13.2c-1.9-.82-3.95.63-5.74 2-1.86 1.43-4.1 2.82-6.01 1.52-1.95-1.33-2.58-5.07-1.96-8.03a21.38 21.38 0 0 1 3.66-7.53c1.59-2.37 3.29-4.84 5.5-5.76 2.2-.92 5.05.38 5.7 3.53l1.56-.05c-.88-1.21-.42-3.71.76-4.15 1.36-.51 2.54 1.36 3.35 3 .36.75.72 1.5 1.07 2.27Z"/>
  <path fill="#e4cda7" d="M511.36 423.77c-3.37.21-6.04-3.94-7.8-8.01s-3.4-8.75-6.44-10.82c-1.73-1.19-3.71-1.35-5.6-1.93a6.93 6.93 0 0 1-4.75-4.18l-2.14-.87a32.08 32.08 0 0 0-8.1 5.79 18.13 18.13 0 0 0-4.84 10.56c-.41 4.28 1.1 9.05 3.91 10.65 2.23 1.27 4.82.47 7.07 1.64 2.82 1.45 4.49 5.66 5.12 9.83s.47 8.49.93 12.7 1.7 8.6 4.28 10.75c3.23 2.7 7.97.46 9.42-4.46.71-2.4.69-5.13 1.22-7.63.94-4.41 3.47-7.68 5.47-11.3s3.58-8.52 2.25-12.72Zm-33.28-43.32a8.99 8.99 0 0 1 .88.93 3.06 3.06 0 0 1-.06 3.16 2.94 2.94 0 0 0 2.1-1.07 13.53 13.53 0 0 0 1.62-2.27 2.48 2.48 0 0 0 .48-1.98c-.16-.46-.54-.65-.8-1a6.72 6.72 0 0 1-.74-2.14 3.87 3.87 0 0 0-2.8-2.95l.17.03a1.6 1.6 0 0 0-.75 1.7c.1.67.52 1.22.48 1.9-.06.96-1.03 1.41-1.09 2.38a1.85 1.85 0 0 0 .51 1.31Zm-5.77-16.46h.02a2.7 2.7 0 0 0 .28-.3Z"/>
  <path fill="#e4cda7" d="M473.32 368.54a2.94 2.94 0 0 0 .92-2.91c-.25-1.1-1.12-1.85-1.91-1.64a1.95 1.95 0 0 1-1.81.53c-.5-.13-1.04-.45-1.47-.08a2.22 2.22 0 0 0-.5.97l-.47 1.46a.92.92 0 0 0-.06.55.47.47 0 0 0 .36.29l2.85.84a2.46 2.46 0 0 0 2.1-.01Zm71.8 62.78-1.32-2.16a7.21 7.21 0 0 0-1.74-2.19 1.54 1.54 0 0 0-2.19.22l.06.41a9.29 9.29 0 0 1 2.31 4.52c.1.74.07 1.5.15 2.24a2.6 2.6 0 0 0 .82 1.82c.7.47 1.5-.22 2-1.05a3.62 3.62 0 0 0 .56-2.3 4.04 4.04 0 0 0-.65-1.51Zm6.9.93a4.98 4.98 0 0 0-.16-2 4.41 4.41 0 0 1 .67-2.5 8.13 8.13 0 0 0 1.04-2.3 1.92 1.92 0 0 0-.05-1.12c-.14-.33-.5-.48-.7-.22l.44.28a3.94 3.94 0 0 0-1.76.08 2.17 2.17 0 0 0-1.33 1.5 9.28 9.28 0 0 1-.35 1.56c-.26.53-.76.7-1.07 1.17a2.8 2.8 0 0 0 .04 2.66 3.1 3.1 0 0 0 1.76 1.39c.53.19 1.23.2 1.47-.5Zm12.28 3.71a6.04 6.04 0 0 0 .76 1.4c.59.59 1.39.22 2.1.08a3.63 3.63 0 0 1 3.46 1.38 8.8 8.8 0 0 0-5.06-6.3 14.86 14.86 0 0 0-5.2-.82l-.3.08c.76 2.24 3.18 2.19 4.24 4.18Zm-52.02 4.58v.01l.1-.17Zm-1.86 3.61a16.55 16.55 0 0 0-1.05 2.3 19.99 19.99 0 0 0-.75 3.92c-.1.76-.13 1.73.35 2.1a.67.67 0 0 0 .88-.12 3.48 3.48 0 0 0 .63-.95 21.85 21.85 0 0 0 2.16-5.12 8.9 8.9 0 0 0-.35-5.73l-1.87 3.6Zm-17.98-96.09a2.12 2.12 0 0 0 2.29.45 7.55 7.55 0 0 0 2.15-1.42 5.06 5.06 0 0 0 1.3-1.42 2.88 2.88 0 0 0 .27-2.2 2.23 2.23 0 0 0-1.7-1.35l-3.17-.94.77-.68c-.79-.43-1.66.36-2.15 1.33a7.16 7.16 0 0 0-.65 2 5.15 5.15 0 0 0 .9 4.23Zm18.64-6.26a1.74 1.74 0 0 0 2.38.2 2.66 2.66 0 0 0 1.05-1.9c.07-.82-.34-1.75-.92-1.82l.13-.77c-1.13-.2-2.52-.25-3.12 1.12a3.22 3.22 0 0 0 .48 3.18Z"/>
  <path fill="#cacaca" d="M679.53 285.15H292.21a1.02 1.02 0 0 1 0-2.03h387.32a1.02 1.02 0 0 1 0 2.03Z"/>
  <ellipse cx="314.56" cy="259.77" fill="#3f3d56" rx="10.93" ry="11.17"/>
  <ellipse cx="352.31" cy="259.77" fill="#3f3d56" rx="10.93" ry="11.17"/>
  <ellipse cx="390.05" cy="259.77" fill="#3f3d56" rx="10.93" ry="11.17"/>
  <path fill="#3f3d56" d="M656.92 251.37H630.1a2.03 2.03 0 0 0 0 4.06h26.8a2.03 2.03 0 0 0 0-4.06Zm0 7.62H630.1a2.03 2.03 0 0 0 0 4.06h26.8a2.03 2.03 0 0 0 0-4.06Zm0 7.61H630.1a2.03 2.03 0 0 0 0 4.06h26.8a2.03 2.03 0 0 0 0-4.06Z"/>
  <path fill="#fff" d="M689.8 408.73c6.23-2.71-6.41-4.3-20.76-4.82s-31.7-.49-40.86-1.97c-8.86-1.43-8.21-3.97-8.96-6.28s-4.15-4.67-17.98-5.18c-17.24-.64-45.67 1.82-58.68.34-12.14-1.37-4.93-5.7-22.63-5.86-10.11-.1-23.14 1.33-34.4 1.67a125.36 125.36 0 0 1-23.85-1.24c-5.49-.9-9.3-2.04-15.48-2.83-16.2-2.08-47.9-1.38-76.2 1.29s-52.54 7.04-66.22 11.38-17.46 8.6-14.27 12.22c2.03 2.3 7.24 4.47 19.87 5.4 23.62 1.73 65.68-1.26 90.09.32 13.6.89 19.64 3.07 31.57 4.26 12.83 1.29 31.6 1.36 50.05 1.32 38.4-.06 77.79-.45 117.95-1.18 16.77-.3 34.35-.7 52.2-2.13s36.06-4.22 39.82-6.83" opacity=".35"/>
</svg>
