{
  "accessors": [
    {
      "bufferView": 2,
      "componentType": 5126,
      "count": 4,
      "max": [
        0.6366705894470215,
        0.0,
        0.4182277023792267
      ],
      "min": [
        -0.6400128602981567,
        0.0,
        -0.8584557771682739
      ],
      "type": "VEC3"
    },
    {
      "bufferView": 2,
      "byteOffset": 48,
      "componentType": 5126,
      "count": 4,
      "max": [
        0.0,
        1.0,
        -0.0
      ],
      "min": [
        0.0,
        1.0,
        -0.0
      ],
      "type": "VEC3"
    },
    {
      "bufferView": 3,
      "componentType": 5126,
      "count": 4,
      "max": [
        -1.0,
        0.0,
        1.3612131510853942e-07,
        1.0
      ],
      "min": [
        -1.0,
        0.0,
        1.3612131510853942e-07,
        1.0
      ],
      "type": "VEC4"
    },
    {
      "bufferView": 1,
      "componentType": 5126,
      "count": 4,
      "max": [
        0.9998998641967773,
        0.9998999834060669
      ],
      "min": [
        9.997999586630613e-05,
        9.997999586630613e-05
      ],
      "type": "VEC2"
    },
    {
      "bufferView": 1,
      "byteOffset": 32,
      "componentType": 5126,
      "count": 4,
      "max": [
        0.9998998641967773,
        0.9998999834060669
      ],
      "min": [
        9.997999586630613e-05,
        9.997999586630613e-05
      ],
      "type": "VEC2"
    },
    {
      "bufferView": 1,
      "byteOffset": 64,
      "componentType": 5126,
      "count": 4,
      "max": [
        0.9998998641967773,
        0.9998999834060669
      ],
      "min": [
        9.997999586630613e-05,
        9.997999586630613e-05
      ],
      "type": "VEC2"
    },
    {
      "bufferView": 1,
      "byteOffset": 96,
      "componentType": 5126,
      "count": 4,
      "max": [
        0.9998998641967773,
        0.9998999834060669
      ],
      "min": [
        9.997999586630613e-05,
        9.997999586630613e-05
      ],
      "type": "VEC2"
    },
    {
      "bufferView": 0,
      "componentType": 5125,
      "count": 6,
      "type": "SCALAR"
    },
    {
      "bufferView": 2,
      "byteOffset": 96,
      "componentType": 5126,
      "count": 753,
      "max": [
        0.2730080485343933,
        0.49970149993896484,
        0.20087289810180664
      ],
      "min": [
        -0.28147876262664795,
        0.0,
        -0.2435186356306076
      ],
      "type": "VEC3"
    },
    {
      "bufferView": 2,
      "byteOffset": 9132,
      "componentType": 5126,
      "count": 753,
      "max": [
        0.9883481860160828,
        1.0,
        0.9953157305717468
      ],
      "min": [
        -0.985651433467865,
        -0.9964617490768433,
        -0.9853572845458984
      ],
      "type": "VEC3"
    },
    {
      "bufferView": 3,
      "byteOffset": 64,
      "componentType": 5126,
      "count": 753,
      "max": [
        0.8107367753982544,
        0.9991589188575745,
        0.9999299645423889,
        1.0
      ],
      "min": [
        -0.9999613761901855,
        -0.9950386881828308,
        -0.9995489716529846,
        1.0
      ],
      "type": "VEC4"
    },
    {
      "bufferView": 1,
      "byteOffset": 128,
      "componentType": 5126,
      "count": 753,
      "max": [
        0.813981294631958,
        0.993838369846344
      ],
      "min": [
        0.00016462391067761928,
        0.002174395602196455
      ],
      "type": "VEC2"
    },
    {
      "bufferView": 1,
      "byteOffset": 6152,
      "componentType": 5126,
      "count": 753,
      "max": [
        0.813981294631958,
        0.993838369846344
      ],
      "min": [
        0.00016462391067761928,
        0.002174395602196455
      ],
      "type": "VEC2"
    },
    {
      "bufferView": 1,
      "byteOffset": 12176,
      "componentType": 5126,
      "count": 753,
      "max": [
        0.813981294631958,
        0.993838369846344
      ],
      "min": [
        0.00016462391067761928,
        0.002174395602196455
      ],
      "type": "VEC2"
    },
    {
      "bufferView": 1,
      "byteOffset": 18200,
      "componentType": 5126,
      "count": 753,
      "max": [
        0.813981294631958,
        0.993838369846344
      ],
      "min": [
        0.00016462391067761928,
        0.002174395602196455
      ],
      "type": "VEC2"
    },
    {
      "bufferView": 0,
      "byteOffset": 24,
      "componentType": 5125,
      "count": 2592,
      "type": "SCALAR"
    },
    {
      "bufferView": 2,
      "byteOffset": 18168,
      "componentType": 5126,
      "count": 196,
      "max": [
        0.13633909821510315,
        0.09314918518066406,
        0.0662296935915947
      ],
      "min": [
        -0.12412460148334503,
        -0.06116126477718353,
        -0.08182798326015472
      ],
      "type": "VEC3"
    },
    {
      "bufferView": 2,
      "byteOffset": 20520,
      "componentType": 5126,
      "count": 196,
      "max": [
        0.9982971549034119,
        0.9951008558273315,
        0.9956203103065491
      ],
      "min": [
        -0.9999986886978149,
        -0.9940651059150696,
        -0.9959224462509155
      ],
      "type": "VEC3"
    },
    {
      "bufferView": 3,
      "byteOffset": 12112,
      "componentType": 5126,
      "count": 196,
      "max": [
        0.9881008863449097,
        0.9503820538520813,
        0.9240977168083191,
        1.0
      ],
      "min": [
        -0.9965490102767944,
        -0.9979667067527771,
        -0.9999791383743286,
        -1.0
      ],
      "type": "VEC4"
    },
    {
      "bufferView": 1,
      "byteOffset": 24224,
      "componentType": 5126,
      "count": 196,
      "max": [
        0.9403631687164307,
        0.9973994493484497
      ],
      "min": [
        0.10903055220842361,
        0.0030308663845062256
      ],
      "type": "VEC2"
    },
    {
      "bufferView": 1,
      "byteOffset": 25792,
      "componentType": 5126,
      "count": 196,
      "max": [
        0.9403631687164307,
        0.9973994493484497
      ],
      "min": [
        0.10903055220842361,
        0.0030308663845062256
      ],
      "type": "VEC2"
    },
    {
      "bufferView": 1,
      "byteOffset": 27360,
      "componentType": 5126,
      "count": 196,
      "max": [
        0.9403631687164307,
        0.9973994493484497
      ],
      "min": [
        0.10903055220842361,
        0.0030308663845062256
      ],
      "type": "VEC2"
    },
    {
      "bufferView": 1,
      "byteOffset": 28928,
      "componentType": 5126,
      "count": 196,
      "max": [
        0.9403631687164307,
        0.9973994493484497
      ],
      "min": [
        0.10903055220842361,
        0.0030308663845062256
      ],
      "type": "VEC2"
    },
    {
      "bufferView": 0,
      "byteOffset": 10392,
      "componentType": 5125,
      "count": 342,
      "type": "SCALAR"
    },
    {
      "bufferView": 2,
      "byteOffset": 22872,
      "componentType": 5126,
      "count": 3552,
      "max": [
        0.04347702115774155,
        0.008154130540788174,
        0.09207263588905334
      ],
      "min": [
        -0.10798186808824539,
        -0.13622605800628662,
        -0.006394853349775076
      ],
      "type": "VEC3"
    },
    {
      "bufferView": 2,
      "byteOffset": 65496,
      "componentType": 5126,
      "count": 3552,
      "max": [
        0.9999063611030579,
        0.9965226650238037,
        0.9978768229484558
      ],
      "min": [
        -0.999343752861023,
        -0.9988241791725159,
        -0.9970264434814453
      ],
      "type": "VEC3"
    },
    {
      "bufferView": 3,
      "byteOffset": 15248,
      "componentType": 5126,
      "count": 3552,
      "max": [
        0.9998115301132202,
        0.9907618761062622,
        0.9983537197113037,
        1.0
      ],
      "min": [
        -0.9989745616912842,
        -0.9876617193222046,
        -0.9971197247505188,
        1.0
      ],
      "type": "VEC4"
    },
    {
      "bufferView": 1,
      "byteOffset": 30496,
      "componentType": 5126,
      "count": 3552,
      "max": [
        0.046011827886104584,
        0.9974961280822754
      ],
      "min": [
        0.009590264409780502,
        0.002497375011444092
      ],
      "type": "VEC2"
    },
    {
      "bufferView": 1,
      "byteOffset": 58912,
      "componentType": 5126,
      "count": 3552,
      "max": [
        0.046011827886104584,
        0.9974961280822754
      ],
      "min": [
        0.009590264409780502,
        0.002497375011444092
      ],
      "type": "VEC2"
    },
    {
      "bufferView": 1,
      "byteOffset": 87328,
      "componentType": 5126,
      "count": 3552,
      "max": [
        0.046011827886104584,
        0.9974961280822754
      ],
      "min": [
        0.009590264409780502,
        0.002497375011444092
      ],
      "type": "VEC2"
    },
    {
      "bufferView": 1,
      "byteOffset": 115744,
      "componentType": 5126,
      "count": 3552,
      "max": [
        0.046011827886104584,
        0.9974961280822754
      ],
      "min": [
        0.009590264409780502,
        0.002497375011444092
      ],
      "type": "VEC2"
    },
    {
      "bufferView": 0,
      "byteOffset": 11760,
      "componentType": 5125,
      "count": 5328,
      "type": "SCALAR"
    },
    {
      "bufferView": 2,
      "byteOffset": 108120,
      "componentType": 5126,
      "count": 4,
      "max": [
        0.6366705894470215,
        1.2766834497451782,
        -0.8584557771682739
      ],
      "min": [
        -0.6400128602981567,
        0.0,
        -0.8584557771682739
      ],
      "type": "VEC3"
    },
    {
      "bufferView": 2,
      "byteOffset": 108168,
      "componentType": 5126,
      "count": 4,
      "max": [
        0.0,
        -0.0,
        1.0
      ],
      "min": [
        0.0,
        -0.0,
        1.0
      ],
      "type": "VEC3"
    },
    {
      "bufferView": 3,
      "byteOffset": 72080,
      "componentType": 5126,
      "count": 4,
      "max": [
        -1.0,
        5.961656768249668e-08,
        -0.0,
        1.0
      ],
      "min": [
        -1.0,
        5.961656768249668e-08,
        -0.0,
        1.0
      ],
      "type": "VEC4"
    },
    {
      "bufferView": 1,
      "byteOffset": 144160,
      "componentType": 5126,
      "count": 4,
      "max": [
        0.9999000430107117,
        0.9999000430107117
      ],
      "min": [
        9.998001041822135e-05,
        9.998001041822135e-05
      ],
      "type": "VEC2"
    },
    {
      "bufferView": 1,
      "byteOffset": 144192,
      "componentType": 5126,
      "count": 4,
      "max": [
        0.9999000430107117,
        0.9999000430107117
      ],
      "min": [
        9.998001041822135e-05,
        9.998001041822135e-05
      ],
      "type": "VEC2"
    },
    {
      "bufferView": 1,
      "byteOffset": 144224,
      "componentType": 5126,
      "count": 4,
      "max": [
        0.9999000430107117,
        0.9999000430107117
      ],
      "min": [
        9.998001041822135e-05,
        9.998001041822135e-05
      ],
      "type": "VEC2"
    },
    {
      "bufferView": 1,
      "byteOffset": 144256,
      "componentType": 5126,
      "count": 4,
      "max": [
        0.9999000430107117,
        0.9999000430107117
      ],
      "min": [
        9.998001041822135e-05,
        9.998001041822135e-05
      ],
      "type": "VEC2"
    },
    {
      "bufferView": 0,
      "byteOffset": 33072,
      "componentType": 5125,
      "count": 6,
      "type": "SCALAR"
    },
    {
      "bufferView": 4,
      "componentType": 5126,
      "count": 43,
      "max": [
        5.0
      ],
      "min": [
        0.0416666679084301
      ],
      "type": "SCALAR"
    },
    {
      "bufferView": 5,
      "componentType": 5126,
      "count": 43,
      "max": [
        0.021114639937877655,
        0.5779047608375549,
        -0.31616833806037903
      ],
      "min": [
        0.015424988232553005,
        0.5612295269966125,
        -0.31616833806037903
      ],
      "type": "VEC3"
    },
    {
      "bufferView": 4,
      "byteOffset": 172,
      "componentType": 5126,
      "count": 43,
      "max": [
        5.0
      ],
      "min": [
        0.0416666679084301
      ],
      "type": "SCALAR"
    },
    {
      "bufferView": 6,
      "componentType": 5126,
      "count": 43,
      "max": [
        0.008214113302528858,
        -0.37790581583976746,
        0.017203157767653465,
        0.9258095026016235
      ],
      "min": [
        -0.010054020211100578,
        -0.37800338864326477,
        -0.012516283430159092,
        0.92563396692276
      ],
      "type": "VEC4"
    }
  ],
  "animations": [
    {
      "channels": [
        {
          "sampler": 0,
          "target": {
            "node": 7,
            "path": "translation"
          }
        },
        {
          "sampler": 1,
          "target": {
            "node": 7,
            "path": "rotation"
          }
        }
      ],
      "name": "Action",
      "samplers": [
        {
          "input": 40,
          "interpolation": "LINEAR",
          "output": 41
        },
        {
          "input": 42,
          "interpolation": "LINEAR",
          "output": 43
        }
      ]
    }
  ],
  "asset": {
    "extras": {
      "author": "Sololopenko (https://sketchfab.com/Sololopenko)",
      "license": "CC-BY-4.0 (http://creativecommons.org/licenses/by/4.0/)",
      "source": "https://sketchfab.com/3d-models/ringing-phone-1fc16e07c3f24d808039f25c586e3917",
      "title": "Ringing phone"
    },
    "generator": "Sketchfab-12.67.0",
    "version": "2.0"
  },
  "bufferViews": [
    {
      "buffer": 0,
      "byteLength": 33096,
      "name": "floatBufferViews",
      "target": 34963
    },
    {
      "buffer": 0,
      "byteLength": 144288,
      "byteOffset": 33096,
      "byteStride": 8,
      "name": "floatBufferViews",
      "target": 34962
    },
    {
      "buffer": 0,
      "byteLength": 108216,
      "byteOffset": 177384,
      "byteStride": 12,
      "name": "floatBufferViews",
      "target": 34962
    },
    {
      "buffer": 0,
      "byteLength": 72144,
      "byteOffset": 285600,
      "byteStride": 16,
      "name": "floatBufferViews",
      "target": 34962
    },
    {
      "buffer": 0,
      "byteLength": 344,
      "byteOffset": 357744,
      "name": "floatBufferViews"
    },
    {
      "buffer": 0,
      "byteLength": 516,
      "byteOffset": 358088,
      "byteStride": 12,
      "name": "floatBufferViews"
    },
    {
      "buffer": 0,
      "byteLength": 688,
      "byteOffset": 358604,
      "byteStride": 16,
      "name": "floatBufferViews"
    }
  ],
  "buffers": [
    {
      "byteLength": 359292,
      "uri": "scene.bin"
    }
  ],
  "images": [
    {
      "uri": "textures/floor_baseColor.png"
    },
    {
      "uri": "textures/floor_metallicRoughness.png"
    },
    {
      "uri": "textures/floor_normal.png"
    },
    {
      "uri": "textures/table_baseColor.png"
    },
    {
      "uri": "textures/table_metallicRoughness.png"
    },
    {
      "uri": "textures/table_normal.png"
    },
    {
      "uri": "textures/phone_baseColor.png"
    },
    {
      "uri": "textures/phone_metallicRoughness.png"
    },
    {
      "uri": "textures/phone_normal.png"
    },
    {
      "uri": "textures/wall_baseColor.png"
    },
    {
      "uri": "textures/wall_metallicRoughness.png"
    },
    {
      "uri": "textures/wall_normal.png"
    }
  ],
  "materials": [
    {
      "doubleSided": true,
      "name": "floor",
      "normalTexture": {
        "index": 2
      },
      "pbrMetallicRoughness": {
        "baseColorTexture": {
          "index": 0
        },
        "metallicFactor": 0.0,
        "metallicRoughnessTexture": {
          "index": 1
        },
        "roughnessFactor": 0.7906859684021734
      }
    },
    {
      "doubleSided": true,
      "name": "table",
      "normalTexture": {
        "index": 5
      },
      "pbrMetallicRoughness": {
        "baseColorTexture": {
          "index": 3
        },
        "metallicFactor": 0.0,
        "metallicRoughnessTexture": {
          "index": 4
        }
      }
    },
    {
      "doubleSided": true,
      "name": "phone",
      "normalTexture": {
        "index": 8
      },
      "pbrMetallicRoughness": {
        "baseColorTexture": {
          "index": 6
        },
        "metallicRoughnessTexture": {
          "index": 7
        }
      }
    },
    {
      "doubleSided": true,
      "name": "wall",
      "normalTexture": {
        "index": 11
      },
      "pbrMetallicRoughness": {
        "baseColorTexture": {
          "index": 9
        },
        "metallicFactor": 0.0,
        "metallicRoughnessTexture": {
          "index": 10
        }
      }
    }
  ],
  "meshes": [
    {
      "name": "Object_0",
      "primitives": [
        {
          "attributes": {
            "NORMAL": 1,
            "POSITION": 0,
            "TANGENT": 2,
            "TEXCOORD_0": 3,
            "TEXCOORD_1": 4,
            "TEXCOORD_2": 5,
            "TEXCOORD_3": 6
          },
          "indices": 7,
          "material": 0,
          "mode": 4
        }
      ]
    },
    {
      "name": "Object_1",
      "primitives": [
        {
          "attributes": {
            "NORMAL": 9,
            "POSITION": 8,
            "TANGENT": 10,
            "TEXCOORD_0": 11,
            "TEXCOORD_1": 12,
            "TEXCOORD_2": 13,
            "TEXCOORD_3": 14
          },
          "indices": 15,
          "material": 1,
          "mode": 4
        }
      ]
    },
    {
      "name": "Object_2",
      "primitives": [
        {
          "attributes": {
            "NORMAL": 17,
            "POSITION": 16,
            "TANGENT": 18,
            "TEXCOORD_0": 19,
            "TEXCOORD_1": 20,
            "TEXCOORD_2": 21,
            "TEXCOORD_3": 22
          },
          "indices": 23,
          "material": 2,
          "mode": 4
        }
      ]
    },
    {
      "name": "Object_3",
      "primitives": [
        {
          "attributes": {
            "NORMAL": 25,
            "POSITION": 24,
            "TANGENT": 26,
            "TEXCOORD_0": 27,
            "TEXCOORD_1": 28,
            "TEXCOORD_2": 29,
            "TEXCOORD_3": 30
          },
          "indices": 31,
          "material": 2,
          "mode": 4
        }
      ]
    },
    {
      "name": "Object_4",
      "primitives": [
        {
          "attributes": {
            "NORMAL": 33,
            "POSITION": 32,
            "TANGENT": 34,
            "TEXCOORD_0": 35,
            "TEXCOORD_1": 36,
            "TEXCOORD_2": 37,
            "TEXCOORD_3": 38
          },
          "indices": 39,
          "material": 3,
          "mode": 4
        }
      ]
    }
  ],
  "nodes": [
    {
      "children": [
        1
      ],
      "matrix": [
        1.458275556564331,
        0.0,
        0.0,
        0.0,
        0.0,
        3.2380221982915704e-16,
        -1.458275556564331,
        0.0,
        0.0,
        1.458275556564331,
        3.2380221982915704e-16,
        0.0,
        0.0,
        0.0,
        0.0,
        1.0
      ],
      "name": "Sketchfab_model"
    },
    {
      "children": [
        2
      ],
      "name": "root"
    },
    {
      "children": [
        3,
        5,
        7,
        11
      ],
      "matrix": [
        1.0,
        0.0,
        0.0,
        0.0,
        0.0,
        2.220446049250313e-16,
        1.0,
        0.0,
        0.0,
        -1.0,
        2.220446049250313e-16,
        0.0,
        0.0,
        0.0,
        0.0,
        1.0
      ],
      "name": "GLTF_SceneRootNode"
    },
    {
      "children": [
        4
      ],
      "matrix": [
        1.0,
        0.0,
        0.0,
        0.0,
        0.0,
        1.0,
        0.0,
        0.0,
        0.0,
        0.0,
        1.0,
        0.0,
        0.0,
        0.0,
        -0.14154422283172607,
        1.0
      ],
      "name": "floor_1"
    },
    {
      "mesh": 0,
      "name": "Object_4"
    },
    {
      "children": [
        6
      ],
      "matrix": [
        1.0,
        0.0,
        0.0,
        0.0,
        0.0,
        1.0,
        0.0,
        0.0,
        0.0,
        0.0,
        1.0,
        0.0,
        -0.004879614803940058,
        0.0,
        -0.3612329065799713,
        1.0
      ],
      "name": "table_2"
    },
    {
      "mesh": 1,
      "name": "Object_6"
    },
    {
      "children": [
        8,
        9
      ],
      "name": "phone_4",
      "rotation": [
        0.0,
        -0.37799039483070374,
        0.0,
        0.9258095026016235
      ],
      "translation": [
        0.01835167035460472,
        0.5612295269966125,
        -0.31616833806037903
      ]
    },
    {
      "mesh": 2,
      "name": "Object_8"
    },
    {
      "children": [
        10
      ],
      "matrix": [
        0.7142465153137796,
        0.0,
        -0.6998942172658115,
        0.0,
        0.0,
        1.0,
        0.0,
        0.0,
        0.6998942172658115,
        0.0,
        0.7142465153137796,
        0.0,
        0.12231477349996567,
        0.020492255687713623,
        0.000630497932434082,
        1.0
      ],
      "name": "phone_wire_3"
    },
    {
      "mesh": 3,
      "name": "Object_10"
    },
    {
      "children": [
        12
      ],
      "matrix": [
        1.0,
        0.0,
        0.0,
        0.0,
        0.0,
        1.0,
        0.0,
        0.0,
        0.0,
        0.0,
        1.0,
        0.0,
        0.0,
        0.0,
        -0.14154422283172607,
        1.0
      ],
      "name": "wall_5"
    },
    {
      "mesh": 4,
      "name": "Object_12"
    }
  ],
  "samplers": [
    {
      "magFilter": 9729,
      "minFilter": 9987,
      "wrapS": 10497,
      "wrapT": 10497
    }
  ],
  "scene": 0,
  "scenes": [
    {
      "name": "Sketchfab_Scene",
      "nodes": [
        0
      ]
    }
  ],
  "textures": [
    {
      "sampler": 0,
      "source": 0
    },
    {
      "sampler": 0,
      "source": 1
    },
    {
      "sampler": 0,
      "source": 2
    },
    {
      "sampler": 0,
      "source": 3
    },
    {
      "sampler": 0,
      "source": 4
    },
    {
      "sampler": 0,
      "source": 5
    },
    {
      "sampler": 0,
      "source": 6
    },
    {
      "sampler": 0,
      "source": 7
    },
    {
      "sampler": 0,
      "source": 8
    },
    {
      "sampler": 0,
      "source": 9
    },
    {
      "sampler": 0,
      "source": 10
    },
    {
      "sampler": 0,
      "source": 11
    }
  ]
}
